<svg xmlns="http://www.w3.org/2000/svg" viewBox="0 0 600 120" width="600" height="120">
  <rect width="600" height="120" fill="#0a0e14"/>
  <g transform="translate(60, 60)">
    <path d="M -38,-32 Q -10,-25 0,-9 Q 10,-25 38,-32" fill="none" stroke="#0d4f6e" stroke-width="0.7" opacity="0.22" stroke-linecap="round"/>
    <path d="M -38,32 Q -10,25 0,9 Q 10,25 38,32" fill="none" stroke="#0d4f6e" stroke-width="0.7" opacity="0.22" stroke-linecap="round"/>
    <path d="M -32,-24 Q -8,-18 0,-6 Q 8,-18 32,-24" fill="none" stroke="#0e6a8a" stroke-width="1" opacity="0.35" stroke-linecap="round"/>
    <path d="M -32,24 Q -8,18 0,6 Q 8,18 32,24" fill="none" stroke="#0e6a8a" stroke-width="1" opacity="0.35" stroke-linecap="round"/>
    <path d="M -24,-16 Q -6,-12 0,-4 Q 6,-12 24,-16" fill="none" stroke="#00b8c4" stroke-width="1.3" opacity="0.55" stroke-linecap="round"/>
    <path d="M -24,16 Q -6,12 0,4 Q 6,12 24,16" fill="none" stroke="#00b8c4" stroke-width="1.3" opacity="0.55" stroke-linecap="round"/>
    <path d="M -16,-8 Q -4,-6 0,-2 Q 4,-6 16,-8" fill="none" stroke="#00e8dc" stroke-width="1.5" opacity="0.8" stroke-linecap="round"/>
    <path d="M -16,8 Q -4,6 0,2 Q 4,6 16,8" fill="none" stroke="#00e8dc" stroke-width="1.5" opacity="0.8" stroke-linecap="round"/>
    <circle cx="-22" cy="-12" r="1.3" fill="#00c8d0" opacity="0.45"/>
    <circle cx="22" cy="12" r="1.3" fill="#00c8d0" opacity="0.45"/>
    <ellipse cx="0" cy="0" rx="2.5" ry="2.5" fill="#00f5ec" opacity="0.9"/>
    <ellipse cx="0" cy="0" rx="6" ry="6" fill="none" stroke="#00f5ec" stroke-width="0.4" opacity="0.25"/>
  </g>
  <line x1="110" y1="25" x2="110" y2="95" stroke="#15202e" stroke-width="0.8"/>
  <text x="130" y="55" font-family="'Helvetica Neue', Helvetica, Arial, sans-serif" font-size="30" font-weight="300" letter-spacing="7" fill="#e8edf2">ORDERFLOW</text>
  <text x="130" y="82" font-family="'Helvetica Neue', Helvetica, Arial, sans-serif" font-size="18" font-weight="200" letter-spacing="12" fill="#4a5e6e">COCKPIT</text>
</svg>