<svg xmlns="http://www.w3.org/2000/svg" viewBox="0 0 600 120" width="600" height="120">
  <rect width="600" height="120" fill="#0a0e14"/>
  
  <!-- Mark -->
  <g transform="translate(60, 60)">
    <path d="M 0,-42 A 42,42 0 0,1 36.4,21" fill="none" stroke="#00d4c8" stroke-width="0.8" opacity="0.15" stroke-linecap="round"/>
    <path d="M 0,42 A 42,42 0 0,1 -36.4,-21" fill="none" stroke="#00d4c8" stroke-width="0.8" opacity="0.15" stroke-linecap="round"/>
    
    <path d="M 0,-32 A 32,32 0 0,1 27.7,16" fill="none" stroke="#00e4d8" stroke-width="1.2" opacity="0.28" stroke-linecap="round"/>
    <path d="M 0,32 A 32,32 0 0,1 -27.7,-16" fill="none" stroke="#00e4d8" stroke-width="1.2" opacity="0.28" stroke-linecap="round"/>
    
    <path d="M 0,-22 A 22,22 0 0,1 19,11" fill="none" stroke="#00f0e8" stroke-width="1.5" opacity="0.5" stroke-linecap="round"/>
    <path d="M 0,22 A 22,22 0 0,1 -19,-11" fill="none" stroke="#00f0e8" stroke-width="1.5" opacity="0.5" stroke-linecap="round"/>
    
    <path d="M 0,-14 A 14,14 0 0,1 12.1,7" fill="none" stroke="#00f5ec" stroke-width="1.6" opacity="0.75" stroke-linecap="round"/>
    <path d="M 0,14 A 14,14 0 0,1 -12.1,-7" fill="none" stroke="#00f5ec" stroke-width="1.6" opacity="0.75" stroke-linecap="round"/>
    
    <circle cx="0" cy="0" r="7" fill="none" stroke="#00f5ec" stroke-width="1.2" opacity="0.85"/>
    <circle cx="0" cy="0" r="2.5" fill="#00f5ec" opacity="0.95"/>
    
    <circle cx="35" cy="-12" r="1.2" fill="#00f5ec" opacity="0.4"/>
    <circle cx="42" cy="8" r="1" fill="#00f5ec" opacity="0.3"/>
    <circle cx="28" cy="20" r="1.1" fill="#00f5ec" opacity="0.35"/>
  </g>
  
  <!-- Vertical separator -->
  <line x1="115" y1="25" x2="115" y2="95" stroke="#15202e" stroke-width="0.8"/>
  
  <!-- Wordmark inline -->
  <text x="135" y="55" font-family="'Helvetica Neue', Helvetica, Arial, sans-serif" font-size="30" font-weight="300" letter-spacing="7" fill="#e8edf2">ORDERFLOW</text>
  <text x="135" y="82" font-family="'Helvetica Neue', Helvetica, Arial, sans-serif" font-size="18" font-weight="200" letter-spacing="12" fill="#4a5e6e">COCKPIT</text>
</svg>