<svg xmlns="http://www.w3.org/2000/svg" viewBox="0 0 320 80" width="320" height="80">
  <!-- Full logo mono — white on transparent -->
  <g transform="translate(40, 40)">
    <path d="M -30,-22 Q -8,-16 0,-6 Q 8,-16 30,-22" fill="none" stroke="#ffffff" stroke-width="1" opacity="0.18" stroke-linecap="round"/>
    <path d="M -30,22 Q -8,16 0,6 Q 8,16 30,22" fill="none" stroke="#ffffff" stroke-width="1" opacity="0.18" stroke-linecap="round"/>
    <path d="M -24,-15 Q -6,-11 0,-4 Q 6,-11 24,-15" fill="none" stroke="#ffffff" stroke-width="1.4" opacity="0.35" stroke-linecap="round"/>
    <path d="M -24,15 Q -6,11 0,4 Q 6,11 24,15" fill="none" stroke="#ffffff" stroke-width="1.4" opacity="0.35" stroke-linecap="round"/>
    <path d="M -16,-8 Q -4,-6 0,-2 Q 4,-6 16,-8" fill="none" stroke="#ffffff" stroke-width="1.8" opacity="0.6" stroke-linecap="round"/>
    <path d="M -16,8 Q -4,6 0,2 Q 4,6 16,8" fill="none" stroke="#ffffff" stroke-width="1.8" opacity="0.6" stroke-linecap="round"/>
    <circle cx="-20" cy="-12" r="1.5" fill="#ffffff" opacity="0.35"/>
    <circle cx="20" cy="12" r="1.5" fill="#ffffff" opacity="0.35"/>
    <circle cx="0" cy="0" r="3" fill="#ffffff" opacity="0.85"/>
    <circle cx="0" cy="0" r="7" fill="none" stroke="#ffffff" stroke-width="0.5" opacity="0.15"/>
  </g>
  <text x="80" y="35" font-family="'Inter','Helvetica Neue',Helvetica,Arial,sans-serif" font-size="24" font-weight="300" letter-spacing="6" fill="#ffffff">ORDERFLOW</text>
  <text x="80" y="55" font-family="'Inter','Helvetica Neue',Helvetica,Arial,sans-serif" font-size="14" font-weight="200" letter-spacing="10" fill="#ffffff" opacity="0.4">COCKPIT</text>
</svg>