<svg xmlns="http://www.w3.org/2000/svg" viewBox="0 0 48 48" width="48" height="48">
  <!-- Monochrome mark — white on transparent -->
  <g transform="translate(24, 24)">
    <path d="M -20,-15 Q -5,-11 0,-4 Q 5,-11 20,-15" fill="none" stroke="#ffffff" stroke-width="1" opacity="0.18" stroke-linecap="round"/>
    <path d="M -20,15 Q -5,11 0,4 Q 5,11 20,15" fill="none" stroke="#ffffff" stroke-width="1" opacity="0.18" stroke-linecap="round"/>
    <path d="M -16,-10 Q -4,-7.5 0,-2.8 Q 4,-7.5 16,-10" fill="none" stroke="#ffffff" stroke-width="1.4" opacity="0.35" stroke-linecap="round"/>
    <path d="M -16,10 Q -4,7.5 0,2.8 Q 4,7.5 16,10" fill="none" stroke="#ffffff" stroke-width="1.4" opacity="0.35" stroke-linecap="round"/>
    <path d="M -10,-5.5 Q -3,-4 0,-1.5 Q 3,-4 10,-5.5" fill="none" stroke="#ffffff" stroke-width="1.8" opacity="0.6" stroke-linecap="round"/>
    <path d="M -10,5.5 Q -3,4 0,1.5 Q 3,4 10,5.5" fill="none" stroke="#ffffff" stroke-width="1.8" opacity="0.6" stroke-linecap="round"/>
    <circle cx="-13" cy="-8" r="1.3" fill="#ffffff" opacity="0.35"/>
    <circle cx="13" cy="8" r="1.3" fill="#ffffff" opacity="0.35"/>
    <circle cx="0" cy="0" r="2.5" fill="#ffffff" opacity="0.85"/>
    <circle cx="0" cy="0" r="6" fill="none" stroke="#ffffff" stroke-width="0.5" opacity="0.15"/>
  </g>
</svg>