<svg xmlns="http://www.w3.org/2000/svg" viewBox="0 0 800 300" width="800" height="300">
  <g transform="translate(120, 150)">
    <path d="M -85,-72 Q -25,-55 0,-22 Q 25,-55 85,-72" fill="none" stroke="#0d4f6e" stroke-width="0.9" opacity="0.22" stroke-linecap="round"/>
    <path d="M -85,72 Q -25,55 0,22 Q 25,55 85,72" fill="none" stroke="#0d4f6e" stroke-width="0.9" opacity="0.22" stroke-linecap="round"/>
    <path d="M -72,-52 Q -18,-38 0,-14 Q 18,-38 72,-52" fill="none" stroke="#0e6a8a" stroke-width="1.3" opacity="0.35" stroke-linecap="round"/>
    <path d="M -72,52 Q -18,38 0,14 Q 18,38 72,52" fill="none" stroke="#0e6a8a" stroke-width="1.3" opacity="0.35" stroke-linecap="round"/>
    <path d="M -55,-34 Q -12,-24 0,-8 Q 12,-24 55,-34" fill="none" stroke="#00b8c4" stroke-width="1.7" opacity="0.55" stroke-linecap="round"/>
    <path d="M -55,34 Q -12,24 0,8 Q 12,24 55,34" fill="none" stroke="#00b8c4" stroke-width="1.7" opacity="0.55" stroke-linecap="round"/>
    <path d="M -35,-16 Q -8,-11 0,-3 Q 8,-11 35,-16" fill="none" stroke="#00e8dc" stroke-width="2" opacity="0.8" stroke-linecap="round"/>
    <path d="M -35,16 Q -8,11 0,3 Q 8,11 35,16" fill="none" stroke="#00e8dc" stroke-width="2" opacity="0.8" stroke-linecap="round"/>
    <circle cx="-52" cy="-28" r="2" fill="#00c8d0" opacity="0.45"/>
    <circle cx="52" cy="28" r="2" fill="#00c8d0" opacity="0.45"/>
    <circle cx="-28" cy="-15" r="2.5" fill="#00dce8" opacity="0.6"/>
    <circle cx="28" cy="15" r="2.5" fill="#00dce8" opacity="0.6"/>
    <circle cx="65" cy="-45" r="1.5" fill="#00c8d0" opacity="0.25"/>
    <circle cx="-65" cy="45" r="1.5" fill="#00c8d0" opacity="0.25"/>
    <ellipse cx="0" cy="0" rx="4" ry="4" fill="#00f5ec" opacity="0.9"/>
    <ellipse cx="0" cy="0" rx="11" ry="11" fill="none" stroke="#00f5ec" stroke-width="0.6" opacity="0.25"/>
    <line x1="0" y1="-88" x2="0" y2="88" stroke="#0d4f6e" stroke-width="0.35" opacity="0.12" stroke-dasharray="3,8"/>
    <line x1="-92" y1="0" x2="92" y2="0" stroke="#0d4f6e" stroke-width="0.35" opacity="0.12" stroke-dasharray="3,8"/>
  </g>
  <text x="270" y="140" font-family="'Helvetica Neue', Helvetica, Arial, sans-serif" font-size="42" font-weight="300" letter-spacing="10" fill="#e8edf2">ORDERFLOW</text>
  <text x="270" y="178" font-family="'Helvetica Neue', Helvetica, Arial, sans-serif" font-size="26" font-weight="200" letter-spacing="16" fill="#4a5e6e">COCKPIT</text>
  <line x1="270" y1="152" x2="620" y2="152" stroke="#15202e" stroke-width="0.5"/>
</svg>