<svg xmlns="http://www.w3.org/2000/svg" viewBox="0 0 800 300" width="800" height="300">
  <g transform="translate(120, 150)">
    <path d="M 0,-105 A 105,105 0 0,1 91,52.5" fill="none" stroke="#00d4c8" stroke-width="1" opacity="0.15" stroke-linecap="round"/>
    <path d="M 0,105 A 105,105 0 0,1 -91,-52.5" fill="none" stroke="#00d4c8" stroke-width="1" opacity="0.15" stroke-linecap="round"/>
    <path d="M 0,-78 A 78,78 0 0,1 67.5,39" fill="none" stroke="#00e4d8" stroke-width="1.5" opacity="0.28" stroke-linecap="round"/>
    <path d="M 0,78 A 78,78 0 0,1 -67.5,-39" fill="none" stroke="#00e4d8" stroke-width="1.5" opacity="0.28" stroke-linecap="round"/>
    <path d="M 0,-52 A 52,52 0 0,1 45,26" fill="none" stroke="#00f0e8" stroke-width="2" opacity="0.5" stroke-linecap="round"/>
    <path d="M 0,52 A 52,52 0 0,1 -45,-26" fill="none" stroke="#00f0e8" stroke-width="2" opacity="0.5" stroke-linecap="round"/>
    <path d="M 0,-30 A 30,30 0 0,1 26,15" fill="none" stroke="#00f5ec" stroke-width="2.2" opacity="0.75" stroke-linecap="round"/>
    <path d="M 0,30 A 30,30 0 0,1 -26,-15" fill="none" stroke="#00f5ec" stroke-width="2.2" opacity="0.75" stroke-linecap="round"/>
    <circle cx="0" cy="0" r="16" fill="none" stroke="#00f5ec" stroke-width="1.8" opacity="0.85"/>
    <circle cx="0" cy="0" r="4.5" fill="#00f5ec" opacity="0.95"/>
    <circle cx="0" cy="0" r="8" fill="#00f5ec" opacity="0.1"/>
    <line x1="0" y1="0" x2="115" y2="-12" stroke="#00f5ec" stroke-width="0.7" opacity="0.2" stroke-dasharray="2,5"/>
    <circle cx="82" cy="-30" r="2.2" fill="#00f5ec" opacity="0.5"/>
    <circle cx="98" cy="16" r="1.6" fill="#00f5ec" opacity="0.35"/>
    <circle cx="68" cy="48" r="1.8" fill="#00f5ec" opacity="0.4"/>
    <circle cx="108" cy="-5" r="1.3" fill="#00f5ec" opacity="0.25"/>
  </g>
  
  <text x="270" y="140" font-family="'Helvetica Neue', Helvetica, Arial, sans-serif" font-size="42" font-weight="300" letter-spacing="10" fill="#e8edf2">ORDERFLOW</text>
  <text x="270" y="178" font-family="'Helvetica Neue', Helvetica, Arial, sans-serif" font-size="26" font-weight="200" letter-spacing="16" fill="#4a5e6e">COCKPIT</text>
  <line x1="270" y1="152" x2="620" y2="152" stroke="#15202e" stroke-width="0.5"/>
</svg>