<svg xmlns="http://www.w3.org/2000/svg" viewBox="0 0 200 200" width="200" height="200">
  <rect width="200" height="200" fill="#0a0e14"/>
  <g transform="translate(100, 100)">
    <path d="M -65,-55 Q -18,-42 0,-16 Q 18,-42 65,-55" fill="none" stroke="#0d4f6e" stroke-width="0.9" opacity="0.22" stroke-linecap="round"/>
    <path d="M -65,55 Q -18,42 0,16 Q 18,42 65,55" fill="none" stroke="#0d4f6e" stroke-width="0.9" opacity="0.22" stroke-linecap="round"/>
    <path d="M -54,-40 Q -14,-30 0,-10 Q 14,-30 54,-40" fill="none" stroke="#0e6a8a" stroke-width="1.3" opacity="0.35" stroke-linecap="round"/>
    <path d="M -54,40 Q -14,30 0,10 Q 14,30 54,40" fill="none" stroke="#0e6a8a" stroke-width="1.3" opacity="0.35" stroke-linecap="round"/>
    <path d="M -42,-26 Q -10,-18 0,-6 Q 10,-18 42,-26" fill="none" stroke="#00b8c4" stroke-width="1.7" opacity="0.55" stroke-linecap="round"/>
    <path d="M -42,26 Q -10,18 0,6 Q 10,18 42,26" fill="none" stroke="#00b8c4" stroke-width="1.7" opacity="0.55" stroke-linecap="round"/>
    <path d="M -26,-12 Q -6,-9 0,-2 Q 6,-9 26,-12" fill="none" stroke="#00e8dc" stroke-width="2" opacity="0.8" stroke-linecap="round"/>
    <path d="M -26,12 Q -6,9 0,2 Q 6,9 26,12" fill="none" stroke="#00e8dc" stroke-width="2" opacity="0.8" stroke-linecap="round"/>
    <circle cx="-38" cy="-21" r="1.8" fill="#00c8d0" opacity="0.45"/>
    <circle cx="38" cy="21" r="1.8" fill="#00c8d0" opacity="0.45"/>
    <circle cx="-20" cy="-11" r="2.2" fill="#00dce8" opacity="0.6"/>
    <circle cx="20" cy="11" r="2.2" fill="#00dce8" opacity="0.6"/>
    <ellipse cx="0" cy="0" rx="3.5" ry="3.5" fill="#00f5ec" opacity="0.9"/>
    <ellipse cx="0" cy="0" rx="9" ry="9" fill="none" stroke="#00f5ec" stroke-width="0.5" opacity="0.25"/>
    <line x1="0" y1="-70" x2="0" y2="70" stroke="#0d4f6e" stroke-width="0.3" opacity="0.1" stroke-dasharray="3,8"/>
    <line x1="-70" y1="0" x2="70" y2="0" stroke="#0d4f6e" stroke-width="0.3" opacity="0.1" stroke-dasharray="3,8"/>
  </g>
</svg>