<svg xmlns="http://www.w3.org/2000/svg" viewBox="0 0 800 300" width="800" height="300">
  <rect width="800" height="300" fill="#f0f2f4"/>
  
  <g transform="translate(120, 150)">
    <path d="M 0,-105 A 105,105 0 0,1 91,52.5" fill="none" stroke="#1a1a1a" stroke-width="1" opacity="0.1" stroke-linecap="round"/>
    <path d="M 0,105 A 105,105 0 0,1 -91,-52.5" fill="none" stroke="#1a1a1a" stroke-width="1" opacity="0.1" stroke-linecap="round"/>
    <path d="M 0,-78 A 78,78 0 0,1 67.5,39" fill="none" stroke="#1a1a1a" stroke-width="1.5" opacity="0.18" stroke-linecap="round"/>
    <path d="M 0,78 A 78,78 0 0,1 -67.5,-39" fill="none" stroke="#1a1a1a" stroke-width="1.5" opacity="0.18" stroke-linecap="round"/>
    <path d="M 0,-52 A 52,52 0 0,1 45,26" fill="none" stroke="#1a1a1a" stroke-width="2" opacity="0.32" stroke-linecap="round"/>
    <path d="M 0,52 A 52,52 0 0,1 -45,-26" fill="none" stroke="#1a1a1a" stroke-width="2" opacity="0.32" stroke-linecap="round"/>
    <path d="M 0,-30 A 30,30 0 0,1 26,15" fill="none" stroke="#1a1a1a" stroke-width="2.2" opacity="0.55" stroke-linecap="round"/>
    <path d="M 0,30 A 30,30 0 0,1 -26,-15" fill="none" stroke="#1a1a1a" stroke-width="2.2" opacity="0.55" stroke-linecap="round"/>
    <circle cx="0" cy="0" r="16" fill="none" stroke="#1a1a1a" stroke-width="1.8" opacity="0.7"/>
    <circle cx="0" cy="0" r="4.5" fill="#1a1a1a" opacity="0.85"/>
    <circle cx="0" cy="0" r="8" fill="#1a1a1a" opacity="0.06"/>
    <line x1="0" y1="0" x2="115" y2="-12" stroke="#1a1a1a" stroke-width="0.7" opacity="0.12" stroke-dasharray="2,5"/>
    <circle cx="82" cy="-30" r="2.2" fill="#1a1a1a" opacity="0.35"/>
    <circle cx="98" cy="16" r="1.6" fill="#1a1a1a" opacity="0.22"/>
    <circle cx="68" cy="48" r="1.8" fill="#1a1a1a" opacity="0.28"/>
  </g>
  
  <text x="270" y="140" font-family="'Helvetica Neue', Helvetica, Arial, sans-serif" font-size="42" font-weight="300" letter-spacing="10" fill="#1a1a1a">ORDERFLOW</text>
  <text x="270" y="178" font-family="'Helvetica Neue', Helvetica, Arial, sans-serif" font-size="26" font-weight="200" letter-spacing="16" fill="#1a1a1a" opacity="0.4">COCKPIT</text>
  <line x1="270" y1="152" x2="620" y2="152" stroke="#1a1a1a" stroke-width="0.4" opacity="0.12"/>
</svg>