<svg xmlns="http://www.w3.org/2000/svg" viewBox="0 0 800 300" width="800" height="300">
  <rect width="800" height="300" fill="#f0f2f4"/>
  <g transform="translate(120, 150)">
    <path d="M -85,-72 Q -25,-55 0,-22 Q 25,-55 85,-72" fill="none" stroke="#1a1a1a" stroke-width="0.9" opacity="0.1" stroke-linecap="round"/>
    <path d="M -85,72 Q -25,55 0,22 Q 25,55 85,72" fill="none" stroke="#1a1a1a" stroke-width="0.9" opacity="0.1" stroke-linecap="round"/>
    <path d="M -72,-52 Q -18,-38 0,-14 Q 18,-38 72,-52" fill="none" stroke="#1a1a1a" stroke-width="1.3" opacity="0.18" stroke-linecap="round"/>
    <path d="M -72,52 Q -18,38 0,14 Q 18,38 72,52" fill="none" stroke="#1a1a1a" stroke-width="1.3" opacity="0.18" stroke-linecap="round"/>
    <path d="M -55,-34 Q -12,-24 0,-8 Q 12,-24 55,-34" fill="none" stroke="#1a1a1a" stroke-width="1.7" opacity="0.3" stroke-linecap="round"/>
    <path d="M -55,34 Q -12,24 0,8 Q 12,24 55,34" fill="none" stroke="#1a1a1a" stroke-width="1.7" opacity="0.3" stroke-linecap="round"/>
    <path d="M -35,-16 Q -8,-11 0,-3 Q 8,-11 35,-16" fill="none" stroke="#1a1a1a" stroke-width="2" opacity="0.5" stroke-linecap="round"/>
    <path d="M -35,16 Q -8,11 0,3 Q 8,11 35,16" fill="none" stroke="#1a1a1a" stroke-width="2" opacity="0.5" stroke-linecap="round"/>
    <circle cx="-52" cy="-28" r="2" fill="#1a1a1a" opacity="0.25"/>
    <circle cx="52" cy="28" r="2" fill="#1a1a1a" opacity="0.25"/>
    <circle cx="-28" cy="-15" r="2.5" fill="#1a1a1a" opacity="0.38"/>
    <circle cx="28" cy="15" r="2.5" fill="#1a1a1a" opacity="0.38"/>
    <ellipse cx="0" cy="0" rx="4" ry="4" fill="#1a1a1a" opacity="0.8"/>
    <ellipse cx="0" cy="0" rx="11" ry="11" fill="none" stroke="#1a1a1a" stroke-width="0.6" opacity="0.15"/>
    <line x1="0" y1="-88" x2="0" y2="88" stroke="#1a1a1a" stroke-width="0.3" opacity="0.06" stroke-dasharray="3,8"/>
    <line x1="-92" y1="0" x2="92" y2="0" stroke="#1a1a1a" stroke-width="0.3" opacity="0.06" stroke-dasharray="3,8"/>
  </g>
  <text x="270" y="140" font-family="'Helvetica Neue', Helvetica, Arial, sans-serif" font-size="42" font-weight="300" letter-spacing="10" fill="#1a1a1a">ORDERFLOW</text>
  <text x="270" y="178" font-family="'Helvetica Neue', Helvetica, Arial, sans-serif" font-size="26" font-weight="200" letter-spacing="16" fill="#1a1a1a" opacity="0.35">COCKPIT</text>
  <line x1="270" y1="152" x2="620" y2="152" stroke="#1a1a1a" stroke-width="0.4" opacity="0.1"/>
</svg>