<svg xmlns="http://www.w3.org/2000/svg" viewBox="0 0 64 64" width="64" height="64">
  <rect width="64" height="64" rx="12" fill="#0a0e14"/>
  <g transform="translate(32, 32)">
    <path d="M -22,-18 Q -6,-14 0,-5 Q 6,-14 22,-18" fill="none" stroke="#0d4f6e" stroke-width="1" opacity="0.3" stroke-linecap="round"/>
    <path d="M -22,18 Q -6,14 0,5 Q 6,14 22,18" fill="none" stroke="#0d4f6e" stroke-width="1" opacity="0.3" stroke-linecap="round"/>
    <path d="M -16,-11 Q -4,-8 0,-3 Q 4,-8 16,-11" fill="none" stroke="#00b8c4" stroke-width="1.5" opacity="0.55" stroke-linecap="round"/>
    <path d="M -16,11 Q -4,8 0,3 Q 4,8 16,11" fill="none" stroke="#00b8c4" stroke-width="1.5" opacity="0.55" stroke-linecap="round"/>
    <path d="M -10,-5 Q -3,-4 0,-1 Q 3,-4 10,-5" fill="none" stroke="#00e8dc" stroke-width="2" opacity="0.8" stroke-linecap="round"/>
    <path d="M -10,5 Q -3,4 0,1 Q 3,4 10,5" fill="none" stroke="#00e8dc" stroke-width="2" opacity="0.8" stroke-linecap="round"/>
    <ellipse cx="0" cy="0" rx="2.5" ry="2.5" fill="#00f5ec" opacity="0.9"/>
    <circle cx="-14" cy="-9" r="1.2" fill="#00c8d0" opacity="0.45"/>
    <circle cx="14" cy="9" r="1.2" fill="#00c8d0" opacity="0.45"/>
  </g>
</svg>