<svg xmlns="http://www.w3.org/2000/svg" viewBox="0 0 32 32" width="32" height="32">
  <rect width="32" height="32" rx="6" fill="#0a0e14"/>
  <g transform="translate(16, 16)">
    <path d="M -11,-9 Q -3,-7 0,-2.5 Q 3,-7 11,-9" fill="none" stroke="#0d4f6e" stroke-width="0.8" opacity="0.3" stroke-linecap="round"/>
    <path d="M -11,9 Q -3,7 0,2.5 Q 3,7 11,9" fill="none" stroke="#0d4f6e" stroke-width="0.8" opacity="0.3" stroke-linecap="round"/>
    <path d="M -8,-6 Q -2,-4.5 0,-1.5 Q 2,-4.5 8,-6" fill="none" stroke="#00b8c4" stroke-width="1.2" opacity="0.55" stroke-linecap="round"/>
    <path d="M -8,6 Q -2,4.5 0,1.5 Q 2,4.5 8,6" fill="none" stroke="#00b8c4" stroke-width="1.2" opacity="0.55" stroke-linecap="round"/>
    <path d="M -5,-3 Q -1.5,-2 0,-0.5 Q 1.5,-2 5,-3" fill="none" stroke="#00e8dc" stroke-width="1.5" opacity="0.8" stroke-linecap="round"/>
    <path d="M -5,3 Q -1.5,2 0,0.5 Q 1.5,2 5,3" fill="none" stroke="#00e8dc" stroke-width="1.5" opacity="0.8" stroke-linecap="round"/>
    <ellipse cx="0" cy="0" rx="1.5" ry="1.5" fill="#00f5ec" opacity="0.9"/>
  </g>
</svg>